<?xml version="1.0" encoding="iso-8859-1"?>
<!-- Uploaded to: SVG Repo, www.svgrepo.com, Generator: SVG Repo Mixer Tools -->
<svg fill="#000000" height="800px" width="800px" version="1.1" id="Layer_1" xmlns="http://www.w3.org/2000/svg" xmlns:xlink="http://www.w3.org/1999/xlink" 
	 viewBox="0 0 500 500" xml:space="preserve">
<g>
	<g>
		<path d="M406.722,0H93.274C67.682,0,46.862,20.82,46.858,46.412v407.176C46.858,479.18,67.682,500,93.274,500h313.452
			c25.596,0,46.42-20.82,46.416-46.408V46.412C453.142,20.82,432.318,0,406.722,0z M406.722,492.004H93.274
			c-21.18,0-38.416-17.232-38.416-38.412V46.412C54.858,25.232,72.094,8,93.274,8h313.448c21.184,0,38.42,17.232,38.42,38.412
			v407.18h0C445.142,474.772,427.91,492.004,406.722,492.004z"/>
	</g>
</g>
<g>
	<g>
		<path d="M316.382,226.476H183.618c-2.212,0-4,1.792-4,4c0,2.208,1.788,4,4,4h132.768c2.208,0,3.996-1.792,3.996-4
			C320.382,228.268,318.594,226.476,316.382,226.476z"/>
	</g>
</g>
<g>
	<g>
		<path d="M230.478,265.524h-46.86c-2.212,0-4,1.792-4,4s1.788,4,4,4h46.86c2.212,0,4-1.792,4-4S232.69,265.524,230.478,265.524z"/>
	</g>
</g>
<g>
	<g>
		<path d="M316.382,265.524h-50.764c-2.212,0-4,1.792-4,4s1.788,4,4,4h50.768c2.208,0,3.996-1.792,3.996-4
			S318.594,265.524,316.382,265.524z"/>
	</g>
</g>
<g>
	<g>
		<path d="M140.526,390.48H89.918c-7.592,0-13.772,6.172-13.772,13.76S82.326,418,89.918,418h50.608
			c7.592,0,13.772-6.172,13.772-13.76S148.118,390.48,140.526,390.48z M140.526,409.996H89.918c-3.184,0-5.772-2.584-5.772-5.76
			c0-3.176,2.588-5.76,5.772-5.76h50.608c3.184,0,5.772,2.584,5.772,5.76C146.298,407.412,143.71,409.996,140.526,409.996z"/>
	</g>
</g>
<g>
	<g>
		<path d="M140.526,82H89.918c-7.596,0-13.772,6.176-13.772,13.764c0,7.588,6.18,13.76,13.772,13.76h50.608
			c7.592,0,13.772-6.176,13.772-13.764S148.118,82,140.526,82z M140.526,101.52H89.918c-3.184,0-5.772-2.584-5.772-5.76
			c0-3.176,2.588-5.76,5.772-5.76h50.608c3.184,0,5.772,2.584,5.772,5.76C146.298,98.936,143.71,101.52,140.526,101.52z"/>
	</g>
</g>
<g>
	<g>
		<path d="M351.526,191.332h-199.14c-2.212,0-4,1.792-4,4v109.336c0,2.208,1.788,4,4,4h199.14c2.212,0,4-1.792,4-4.004V195.332
			C355.526,193.124,353.738,191.332,351.526,191.332z M347.526,300.668h-191.14V199.332h191.14V300.668z"/>
	</g>
</g>
<g>
	<g>
		<path d="M410.094,66.38c-2.212,0-4,1.792-4,4V496c0,2.208,1.788,4,4,4c2.212,0,4-1.792,4-4V70.38
			C414.094,68.172,412.306,66.38,410.094,66.38z"/>
	</g>
</g>
<g>
	<g>
		<path d="M410.094,0c-2.212,0-4,1.792-4,4v23.428c0,2.208,1.788,4,4,4c2.212,0,4-1.792,4-4V4C414.094,1.792,412.306,0,410.094,0z"
			/>
	</g>
</g>
</svg>